# Rhino

mtllib A4_lowpoly.mtl
usemtl diffuse_ActiveCaptionText
v -2.0251895902135377 3.8275492904370676 -10.230175423267365
v -2.9285992370590179 5.0829559930705637 -10.768682566604195
v -1.3457857236842958 3.8649465934654978 -12.594502375854784
v -4.7652925842115703 5.5390829718607 -16.278126618230029
v -3.8192808134572971 7.0933137887050517 -15.750336153086376
v -5.9973630754558567 5.532425120619469 -13.215943130668709
v -2.2059687107949948 6.0377776787288644 -12.903147232114915
v -4.101964196329364 6.8132627791663092 -11.639884060211907
v -2.9060857683170838 7.0808035807891807 -13.915678769394924
v -6.2596019991000826 3.8294831167142336 -13.281050895701679
v -5.3094764917310382 3.8294862272597419 -15.546659511981243
v -5.2084889274895705 7.0401983784574167 -12.628792705836455
vn -0.74862563610076904 -0.60152441263198853 -0.27879741787910461
vn -0.71480244398117065 -0.57795870304107666 -0.39372736215591431
vn -0.85638368129730225 -0.39996716380119324 -0.32654744386672974
vn 0.88151341676712036 -0.29820045828819275 0.36607462167739868
vn 0.45547297596931458 -0.86745947599411011 0.20014616847038269
vn 0.8870697021484375 -0.29016551375389099 0.35904219746589661
vn -0.68701153993606567 -0.5394400954246521 -0.48684656620025635
vn -0.41930359601974487 -0.83692622184753418 -0.35176548361778259
vn -0.29158523678779602 -0.92131423950195312 -0.25721219182014465
vn 0.91807550191879272 -0.1185465082526207 0.37826463580131531
vn 0.91619968414306641 -0.1071963906288147 0.38611793518066406
vn 0.4305260181427002 -0.88666963577270508 0.16871358454227448
f 1//1 2//2 3//3
f 5//5 12//12 6//6 4//4
f 2//2 7//7 3//3
f 8//8 9//9 7//7
f 6//6 10//10 11//11
f 12//12 9//9 8//8
f 8//8 7//7 2//2
f 12//12 5//5 9//9
f 6//6 11//11 4//4
usemtl diffuse_0_127_0_255
v -4.6984156516180864 8.1033016044288928 -6.2995767377374694
v -3.1367649651605447 6.5976772224646547 -8.0453078880828404
v -5.6071677100980502 5.9762230715711304 -8.384146530978267
v -7.1888763269542455 4.3584936748054721 -7.3398514961026642
v -7.4964844984930767 5.9188537776165067 -5.392731988682268
v -7.7439756156044108 3.7978039449856418 -4.3782543594645738
v -4.0493510480403998 5.5967287707832458 -1.9357224674396494
v -1.4434262734985488 6.533244462415162 -2.7486389974321268
v -3.0443455710439125 8.60832445931573 -3.2275998896772311
v -5.1518860817985637 7.3376644319698938 -2.277973716955112
v -4.0180851223208283 9.6608657761327308 -6.7910825601630993
v -2.2396730553449871 8.5393357751599765 -8.5219626809067979
v -0.98424612482735796 6.8702267886857502 -7.2023836904004419
v -1.7993772468411944 4.0448105780152961 -6.5772123880801168
v -2.9605908217747956 4.4238066888106422 -9.3148971975629955
v -3.5312963070703898 4.0650085163407885 -2.2488772194421394
v -1.0069268960764752 5.8152218316962347 -4.4252347538461798
v -3.0443455710439125 8.60832445931573 -3.2275998896772311
v -6.222602056538852 7.5715350276435007 -4.8573960731506549
v -5.1518860817985637 7.3376644319698938 -2.277973716955112
v -4.6984156516180864 8.1033016044288928 -6.2995767377374694
v -4.0180851223208283 9.6608657761327308 -6.7910825601630993
vn -0.60388660430908203 0.63700813055038452 -0.47910496592521667
vn 0.19667492806911469 0.19521614909172058 -0.9608379602432251
vn -0.45548585057258606 0.74953311681747437 -0.48034653067588806
vn -0.93096286058425903 0.22613818943500519 -0.28665247559547424
vn -0.83829540014266968 0.33581560850143433 -0.42952144145965576
vn -0.98347717523574829 0.0028430765960365534 -0.18100996315479279
vn 0.43045800924301147 0.14656057953834534 0.8906322717666626
vn 0.21989099681377411 -0.23322439193725586 0.947235107421875
vn 0.058782227337360382 0.22542287409305573 0.97248607873916626
vn 0.21723991632461548 0.27753737568855286 0.93583106994628906
vn -0.88309961557388306 0.17777974903583527 -0.43419981002807617
vn -0.46586799621582031 -0.29144394397735596 -0.83548039197921753
vn 0.39176672697067261 -0.67067140340805054 -0.62985605001449585
vn 0.99172079563140869 -0.079017803072929382 -0.10122285038232803
vn 0.78441369533538818 0.32319650053977966 -0.52937620878219604
vn 0.71130859851837158 -0.36777320504188538 0.59898489713668823
vn 0.60848647356033325 -0.78057682514190674 0.14298258721828461
vn -0.2854781448841095 0.75381463766098022 0.59183251857757568
vn -0.55925953388214111 0.8153914213180542 -0.14955146610736847
vn -0.18065540492534637 0.90381884574890137 0.38791123032569885
vn -0.62905865907669067 0.76714789867401123 0.12557578086853027
vn -0.68880379199981689 0.67269772291183472 0.27023535966873169
f 13//13 14//14 15//15
f 16//16 17//17 15//15
f 18//18 17//17 16//16
f 21//21 22//22 19//19 20//20
f 24//24 14//14 13//13 23//23
f 25//25 26//26 14//14
f 14//14 26//26 27//27
f 27//27 15//15 14//14
f 28//28 26//26 29//29
f 17//17 31//31 13//13 15//15
f 20//20 19//19 29//29
f 30//30 31//31 32//32
f 30//30 33//33 31//31
f 30//30 34//34 33//33
f 28//28 29//29 19//19
f 25//25 14//14 24//24
f 25//25 29//29 26//26
usemtl diffuse_0_127_0_255
v -3.1953040537529471 3.829601759570334 8.1061665665578424
v -3.9291749914852883 5.1575652081281405 8.4361522559499811
v -4.9147698542802214 5.1575652081281422 6.1918398229404055
v -3.8710300068528039 3.8296017595703349 5.5231836146799687
v -4.9147698542802214 5.1575652081281422 6.1918398229404055
v -3.9291749914852883 5.1575652081281405 8.4361522559499811
v -4.8332709432679746 6.2483256277286001 8.8239348824597368
v -4.8332709432679746 6.248325627728601 6.9180826339784467
v -5.5389183262361552 6.6251990333577107 9.1181600448098248
v -6.7170570591457857 7.5922912904197917 6.8650093184926089
v -4.8332709432679746 6.248325627728601 6.9180826339784467
v -4.8332709432679746 6.2483256277286001 8.8239348824597368
v -6.7170570591457857 7.5922912904197917 6.8650093184926089
v -7.9567421177395357 6.033768589156363 7.9572563277699508
v -7.0749366978176607 5.4319161721641755 9.5694351302601852
v -5.5389183262361552 6.6251990333577107 9.1181600448098248
v -7.0749366978176607 5.4319161721641755 9.5694351302601852
v -7.8330242670114369 3.829601759570334 10.043928670512894
v -8.947468138248011 3.829601759570334 8.3980876168248919
v -7.9567421177395357 6.033768589156363 7.9572563277699508
v -7.9567421177395357 6.033768589156363 7.9572563277699508
v -9.2117775181301607 5.3135084458763346 6.8423957931019821
v -9.5069266995012338 3.8296017595703349 7.1208608237352458
v -8.947468138248011 3.829601759570334 8.3980876168248919
v -9.2117775181301607 5.3135084458763346 6.8423957931019821
v -8.9005439976223482 4.7547783204490894 4.1883010970570602
v -8.863135750728814 3.8296017595703358 4.3562399628329764
v -9.5069266995012338 3.8296017595703349 7.1208608237352458
v -6.9232948521145357 5.1090022870476011 0.97694016566057629
v -6.8803116726173226 3.8296017595703367 1.3009864630397452
v -8.9005439976223482 4.7547783204490894 4.1883010970570602
v -8.1602333286770357 4.9654094525749439 2.8830413924672169
v -8.0791538035529396 3.8296017595703358 3.1044813470307169
v -8.863135750728814 3.8296017595703358 4.3562399628329764
v -7.1777122715481294 6.5611297437126401 2.3747978316762022
v -6.6051872471340669 7.4606165238792652 2.9616546737172178
v -5.3684929111965669 7.5401453324730161 1.7786445723988584
v -6.1220024326809419 6.3627950498039496 1.0173454390980767
v -6.6051872471340669 7.4606165238792652 2.9616546737172178
v -5.7428215244778169 7.7215122529442066 4.8212127791859682
v -4.1255272129543794 8.2137617417747748 3.4968872176625307
v -5.3684929111965669 7.5401453324730161 1.7786445723988584
v -5.7428215244778169 7.7215122529442066 4.8212127791859682
v -4.1255272129543794 8.2137617417747748 3.4968872176625307
v -2.5006645420559348 7.7431964227134937 4.6113166915394839
v -4.2997062901028169 6.5072197266990894 5.3415107833363571
v -2.1984745109933197 3.8296017595703358 3.0105672443282749
v -3.666692656160448 3.8296017595703358 4.2712033636228206
v -4.2997062901028169 6.5072197266990894 5.3415107833363571
v -2.5006645420559348 7.7431964227134937 4.6113166915394839
v -1.8722465733059348 5.9590434380943531 4.181732188365654
v -3.9131859043606294 5.2907330342705006 5.2449874984242477
v -4.9147698542802214 5.1575652081281422 6.1918398229404055
v -3.9131859043606294 5.2907330342705006 5.2449874984242477
v -3.666692656160448 3.8296017595703358 4.2712033636228206
v -3.8710300068528039 3.8296017595703349 5.5231836146799687
v -4.8332709432679746 6.248325627728601 6.9180826339784467
v -4.2997062901028169 6.5072197266990894 5.3415107833363571
v -3.9131859043606294 5.2907330342705006 5.2449874984242477
v -4.9147698542802214 5.1575652081281422 6.1918398229404055
v -5.7428215244778169 7.7215122529442066 4.8212127791859682
v -4.2997062901028169 6.5072197266990894 5.3415107833363571
v -4.8332709432679746 6.248325627728601 6.9180826339784467
v -6.7170570591457857 7.5922912904197917 6.8650093184926089
v -6.7867820957668794 10.033217842238638 7.0455513106801089
v -8.5122678773914355 8.5584150819157401 8.1313122745486677
v -7.9567421177395357 6.033768589156363 7.9572563277699508
v -6.7170570591457857 7.5922912904197917 6.8650093184926089
v -6.7170570591457857 7.5922912904197917 6.8650093184926089
v -6.7867820957668794 10.033217842238638 7.0455513106801089
v -7.0421226719387544 8.9941124268944019 4.4150085555531557
v -5.7428215244778169 7.7215122529442066 4.8212127791859682
v -9.2117775181301607 5.3135084458763346 6.8423957931019821
v -9.8974693516262544 6.142031128066276 6.4251556502797165
v -9.6559684971340669 5.2249390431816334 3.987491618297295
v -8.9005439976223482 4.7547783204490894 4.1883010970570602
v -8.5122678773914355 8.5584150819157401 8.1313122745486677
v -9.8974693516262544 6.142031128066276 6.4251556502797165
v -9.2117775181301607 5.3135084458763346 6.8423957931019821
v -7.9567421177395357 6.033768589156363 7.9572563277699508
v -7.0421226719387544 8.9941124268944019 4.4150085555531557
v -7.5498131016262544 7.9812082597191099 2.7606811629750303
v -6.6051872471340669 7.4606165238792652 2.9616546737172178
v -5.7428215244778169 7.7215122529442066 4.8212127791859682
v -6.6051872471340669 7.4606165238792652 2.9616546737172178
v -7.5498131016262544 7.9812082597191099 2.7606811629750303
v -8.1130150059231294 6.9933556863243345 2.2180938827015928
v -7.1777122715481294 6.5611297437126401 2.3747978316762022
v -8.1602333286770357 4.9654094525749439 2.8830413924672169
v -7.1777122715481294 6.5611297437126401 2.3747978316762022
v -6.1220024326809419 6.3627950498039496 1.0173454390980767
v -6.9232948521145357 5.1090022870476011 0.97694016566057629
v -9.6559684971340669 5.2249390431816334 3.987491618297295
v -8.7412040928371919 5.9278268166954273 2.5005531417347955
v -8.1602333286770357 4.9654094525749439 2.8830413924672169
v -8.9005439976223482 4.7547783204490894 4.1883010970570602
v -8.1130150059231294 6.9933556863243345 2.2180938827015928
v -8.7412040928371919 5.9278268166954273 2.5005531417347955
v -8.1602333286770357 4.9654094525749439 2.8830413924672169
v -7.1777122715481294 6.5611297437126401 2.3747978316762022
vn -0.75455784797668457 -0.60266709327697754 0.25968220829963684
vn -0.75455784797668457 -0.60266709327697754 0.25968220829963684
vn -0.75455784797668457 -0.60266709327697754 0.25968220829963684
vn -0.75455784797668457 -0.60266709327697754 0.25968220829963684
vn -0.87545996904373169 -0.43628489971160889 0.20790712535381317
vn -0.87545996904373169 -0.43628489971160889 0.20790712535381317
vn -0.87545996904373169 -0.43628489971160889 0.20790712535381317
vn -0.87545996904373169 -0.43628489971160889 0.20790712535381317
vn -0.55544352531433105 -0.83078163862228394 -0.035838630050420761
vn -0.55544352531433105 -0.83078163862228394 -0.035838630050420761
vn -0.55544352531433105 -0.83078163862228394 -0.035838630050420761
vn -0.55544352531433105 -0.83078163862228394 -0.035838630050420761
vn 0.43212321400642395 -0.73162108659744263 -0.52725714445114136
vn 0.43212321400642395 -0.73162108659744263 -0.52725714445114136
vn 0.43212321400642395 -0.73162108659744263 -0.52725714445114136
vn 0.43212321400642395 -0.73162108659744263 -0.52725714445114136
vn 0.718677818775177 -0.45634165406227112 -0.52464699745178223
vn 0.718677818775177 -0.45634165406227112 -0.52464699745178223
vn 0.718677818775177 -0.45634165406227112 -0.52464699745178223
vn 0.718677818775177 -0.45634165406227112 -0.52464699745178223
vn 0.79030287265777588 -0.37069401144981384 -0.48785996437072754
vn 0.79030287265777588 -0.37069401144981384 -0.48785996437072754
vn 0.79030287265777588 -0.37069401144981384 -0.48785996437072754
vn 0.79030287265777588 -0.37069401144981384 -0.48785996437072754
vn 0.98101019859313965 -0.071550220251083374 0.1802763044834137
vn 0.98101019859313965 -0.071550220251083374 0.1802763044834137
vn 0.98101019859313965 -0.071550220251083374 0.1802763044834137
vn 0.98101019859313965 -0.071550220251083374 0.1802763044834137
vn 0.82143509387969971 0.16546015441417694 0.5457722544670105
vn 0.82143509387969971 0.16546015441417694 0.5457722544670105
vn 0.84443211555480957 0.14592166244983673 0.51540392637252808
vn 0.84443211555480957 0.14592166244983673 0.51540392637252808
vn 0.84443211555480957 0.14592166244983673 0.51540392637252808
vn 0.84443211555480957 0.14592166244983673 0.51540392637252808
vn 0.53312456607818604 -0.67310762405395508 0.51254689693450928
vn 0.53312456607818604 -0.67310762405395508 0.51254689693450928
vn 0.53312456607818604 -0.67310762405395508 0.51254689693450928
vn 0.53312456607818604 -0.67310762405395508 0.51254689693450928
vn 0.2714877724647522 -0.95817583799362183 0.090517953038215637
vn 0.2714877724647522 -0.95817583799362183 0.090517953038215637
vn 0.2714877724647522 -0.95817583799362183 0.090517953038215637
vn 0.2714877724647522 -0.95817583799362183 0.090517953038215637
vn -0.039166398346424103 -0.73163729906082153 -0.68056803941726685
vn -0.039166398346424103 -0.73163729906082153 -0.68056803941726685
vn -0.039166398346424103 -0.73163729906082153 -0.68056803941726685
vn -0.039166398346424103 -0.73163729906082153 -0.68056803941726685
vn -0.55310648679733276 0.43627306818962097 -0.70974570512771606
vn -0.55310648679733276 0.43627306818962097 -0.70974570512771606
vn -0.42858898639678955 0.013428554870188236 -0.9033997654914856
vn -0.42858898639678955 0.013428554870188236 -0.9033997654914856
vn -0.42858898639678955 0.013428554870188236 -0.9033997654914856
vn -0.42858898639678955 0.013428554870188236 -0.9033997654914856
vn -0.8677675724029541 -0.11699888110160828 -0.483001708984375
vn -0.8677675724029541 -0.11699888110160828 -0.483001708984375
vn -0.8677675724029541 -0.11699888110160828 -0.483001708984375
vn -0.8677675724029541 -0.11699888110160828 -0.483001708984375
vn -0.85701256990432739 0.068810738623142242 -0.51068049669265747
vn -0.85701256990432739 0.068810738623142242 -0.51068049669265747
vn -0.85701256990432739 0.068810738623142242 -0.51068049669265747
vn -0.85701256990432739 0.068810738623142242 -0.51068049669265747
vn -0.54522675275802612 -0.77864491939544678 -0.31054764986038208
vn -0.54522675275802612 -0.77864491939544678 -0.31054764986038208
vn -0.54522675275802612 -0.77864491939544678 -0.31054764986038208
vn -0.54522675275802612 -0.77864491939544678 -0.31054764986038208
vn -0.58178597688674927 -0.015185167081654072 -0.81320011615753174
vn -0.58178597688674927 -0.015185167081654072 -0.81320011615753174
vn -0.58178597688674927 -0.015185167081654072 -0.81320011615753174
vn -0.58178597688674927 -0.015185167081654072 -0.81320011615753174
vn -0.934073805809021 -0.34895697236061096 -0.075730584561824799
vn -0.934073805809021 -0.34895697236061096 -0.075730584561824799
vn -0.934073805809021 -0.34895697236061096 -0.075730584561824799
vn -0.934073805809021 -0.34895697236061096 -0.075730584561824799
vn 0.69394117593765259 0.70820975303649902 -0.12994065880775452
vn 0.69394117593765259 0.70820975303649902 -0.12994065880775452
vn 0.69394117593765259 0.70820975303649902 -0.12994065880775452
vn 0.69394117593765259 0.70820975303649902 -0.12994065880775452
vn 0.61626136302947998 0.1723865419626236 -0.76844310760498047
vn 0.61626136302947998 0.1723865419626236 -0.76844310760498047
vn 0.61626136302947998 0.1723865419626236 -0.76844310760498047
vn 0.61626136302947998 0.1723865419626236 -0.76844310760498047
vn -0.62519556283950806 -0.62329918146133423 0.46971121430397034
vn -0.62519556283950806 -0.62329918146133423 0.46971121430397034
vn -0.62519556283950806 -0.62329918146133423 0.46971121430397034
vn -0.62519556283950806 -0.62329918146133423 0.46971121430397034
vn -0.33422410488128662 -0.32770407199859619 0.88368791341781616
vn -0.33422410488128662 -0.32770407199859619 0.88368791341781616
vn -0.33422410488128662 -0.32770407199859619 0.88368791341781616
vn -0.33422410488128662 -0.32770407199859619 0.88368791341781616
vn 0.7527240514755249 -0.38333684206008911 0.53521901369094849
vn 0.7527240514755249 -0.38333684206008911 0.53521901369094849
vn 0.7527240514755249 -0.38333684206008911 0.53521901369094849
vn 0.7527240514755249 -0.38333684206008911 0.53521901369094849
vn 0.50583040714263916 0.68523126840591431 0.52401691675186157
vn 0.50583040714263916 0.68523126840591431 0.52401691675186157
vn 0.50583040714263916 0.68523126840591431 0.52401691675186157
vn 0.50583040714263916 0.68523126840591431 0.52401691675186157
vn -0.05016743391752243 0.31223279237747192 0.94868010282516479
vn -0.05016743391752243 0.31223279237747192 0.94868010282516479
vn -0.05016743391752243 0.31223279237747192 0.94868010282516479
vn -0.05016743391752243 0.31223279237747192 0.94868010282516479
f 35//35 36//36 37//37 38//38
f 39//39 40//40 41//41 42//42
f 43//43 44//44 45//45 46//46
f 47//47 50//50 49//49 48//48
f 51//51 52//52 53//53 54//54
f 55//55 58//58 57//57 56//56
f 59//59 62//62 61//61 60//60
f 66//66 67//67 64//64 63//63
f 65//65 68//68 67//67 66//66
f 69//69 72//72 71//71 70//70
f 73//73 76//76 75//75 74//74
f 77//77 78//78 79//79 80//80
f 86//86 85//85 81//81 82//82
f 83//83 84//84 85//85 86//86
f 87//87 88//88 89//89 90//90
f 91//91 92//92 93//93 94//94
f 95//95 96//96 97//97 98//98
f 99//99 102//102 101//101 100//100
f 103//103 104//104 105//105 106//106
f 107//107 110//110 109//109 108//108
f 111//111 114//114 113//113 112//112
f 115//115 116//116 117//117 118//118
f 119//119 120//120 121//121 122//122
f 123//123 126//126 125//125 124//124
f 127//127 130//130 129//129 128//128
f 131//131 132//132 133//133 134//134
