<?xml version="1.0" encoding="UTF-8"?>
<svg id="Layer_1" xmlns="http://www.w3.org/2000/svg" version="1.1" viewBox="0 0 958 944">
  <!-- Generator: Adobe Illustrator 29.0.1, SVG Export Plug-In . SVG Version: 2.1.0 Build 192)  -->
  <defs>
    <style>
      .st0 {
        fill: none;
        stroke: #fff;
        stroke-miterlimit: 10;
        stroke-width: .5px;
      }
    </style>
  </defs>
  <path class="st0" d="M-.2,468.8v6.5"/>
  <path class="st0" d="M.7,468.8v6.5"/>
  <path class="st0" d="M1.6,468.8v6.5"/>
  <path class="st0" d="M2.5,467.8v8.4"/>
  <path class="st0" d="M3.5,467.8v8.4"/>
  <path class="st0" d="M4.4,470.1v3.8"/>
  <path class="st0" d="M5.3,470.1v3.8"/>
  <path class="st0" d="M6.2,470.1v3.8"/>
  <path class="st0" d="M7.2,460.7v22.6"/>
  <path class="st0" d="M8.1,460.7v22.6"/>
  <path class="st0" d="M9,460.7v22.6"/>
  <path class="st0" d="M9.9,463.6v16.9"/>
  <path class="st0" d="M10.9,463.6v16.9"/>
  <path class="st0" d="M11.8,463.2v17.6"/>
  <path class="st0" d="M12.7,463.2v17.6"/>
  <path class="st0" d="M13.6,467.8v8.3"/>
  <path class="st0" d="M14.6,467.8v8.3"/>
  <path class="st0" d="M15.5,467.8v8.3"/>
  <path class="st0" d="M16.4,469.6v4.7"/>
  <path class="st0" d="M17.3,469.6v4.7"/>
  <path class="st0" d="M18.2,469.6v4.7"/>
  <path class="st0" d="M19.2,465.1v13.7"/>
  <path class="st0" d="M20.1,465.1v13.7"/>
  <path class="st0" d="M21,467.1v9.7"/>
  <path class="st0" d="M21.9,467.1v9.7"/>
  <path class="st0" d="M22.9,467.1v9.7"/>
  <path class="st0" d="M23.8,469.6v4.8"/>
  <path class="st0" d="M24.7,469.6v4.8"/>
  <path class="st0" d="M25.6,469.6v4.8"/>
  <path class="st0" d="M26.6,470v3.9"/>
  <path class="st0" d="M27.5,470v3.9"/>
  <path class="st0" d="M28.4,470.8v2.4"/>
  <path class="st0" d="M29.3,470.8v2.4"/>
  <path class="st0" d="M30.3,470.7v2.6"/>
  <path class="st0" d="M31.2,470.7v2.6"/>
  <path class="st0" d="M32.1,470.7v2.6"/>
  <path class="st0" d="M33,471.1v1.7"/>
  <path class="st0" d="M34,471.1v1.7"/>
  <path class="st0" d="M34.9,471.1v1.7"/>
  <path class="st0" d="M35.8,469.5v5.1"/>
  <path class="st0" d="M36.7,469.5v5.1"/>
  <path class="st0" d="M37.6,470.4v3.2"/>
  <path class="st0" d="M38.6,470.4v3.2"/>
  <path class="st0" d="M39.5,470.4v3.2"/>
  <path class="st0" d="M40.4,469.9v4.2"/>
  <path class="st0" d="M41.3,469.9v4.2"/>
  <path class="st0" d="M42.3,469.9v4.2"/>
  <path class="st0" d="M43.2,471v2"/>
  <path class="st0" d="M44.1,471v2"/>
  <path class="st0" d="M45,470.3v3.3"/>
  <path class="st0" d="M46,470.3v3.3"/>
  <path class="st0" d="M46.9,469.8v4.4"/>
  <path class="st0" d="M47.8,469.8v4.4"/>
  <path class="st0" d="M48.7,469.8v4.4"/>
  <path class="st0" d="M49.7,470.3v3.5"/>
  <path class="st0" d="M50.6,470.3v3.5"/>
  <path class="st0" d="M51.5,470.3v3.5"/>
  <path class="st0" d="M52.4,468.6v6.9"/>
  <path class="st0" d="M53.4,468.6v6.9"/>
  <path class="st0" d="M54.3,458.2v27.6"/>
  <path class="st0" d="M55.2,458.2v27.6"/>
  <path class="st0" d="M56.1,458.2v27.6"/>
  <path class="st0" d="M57,467.2v9.5"/>
  <path class="st0" d="M58,467.2v9.5"/>
  <path class="st0" d="M58.9,463.4v17.1"/>
  <path class="st0" d="M59.8,463.4v17.1"/>
  <path class="st0" d="M60.7,463.4v17.1"/>
  <path class="st0" d="M61.7,461.8v20.4"/>
  <path class="st0" d="M62.6,461.8v20.4"/>
  <path class="st0" d="M63.5,461.9v20.2"/>
  <path class="st0" d="M64.4,461.9v20.2"/>
  <path class="st0" d="M65.4,461.9v20.2"/>
  <path class="st0" d="M66.3,461.9v20.1"/>
  <path class="st0" d="M67.2,461.9v20.1"/>
  <path class="st0" d="M68.1,461.9v20.1"/>
  <path class="st0" d="M69.1,464.8v14.5"/>
  <path class="st0" d="M70,464.8v14.5"/>
  <path class="st0" d="M70.9,470.1v3.7"/>
  <path class="st0" d="M71.8,470.1v3.7"/>
  <path class="st0" d="M72.8,470.6v2.8"/>
  <path class="st0" d="M73.7,470.6v2.8"/>
  <path class="st0" d="M74.6,470.6v2.8"/>
  <path class="st0" d="M75.5,466.9v10.2"/>
  <path class="st0" d="M76.4,466.9v10.2"/>
  <path class="st0" d="M77.4,466.9v10.2"/>
  <path class="st0" d="M78.3,463.5v17"/>
  <path class="st0" d="M79.2,463.5v17"/>
  <path class="st0" d="M80.1,466v12"/>
  <path class="st0" d="M81.1,466v12"/>
  <path class="st0" d="M82,466v12"/>
  <path class="st0" d="M82.9,469.3v5.5"/>
  <path class="st0" d="M83.8,469.3v5.5"/>
  <path class="st0" d="M84.8,469.3v5.5"/>
  <path class="st0" d="M85.7,469.5v5"/>
  <path class="st0" d="M86.6,469.5v5"/>
  <path class="st0" d="M87.5,461.4v21.1"/>
  <path class="st0" d="M88.5,461.4v21.1"/>
  <path class="st0" d="M89.4,467.9v8.2"/>
  <path class="st0" d="M90.3,467.9v8.2"/>
  <path class="st0" d="M91.2,467.9v8.2"/>
  <path class="st0" d="M92.2,465v13.9"/>
  <path class="st0" d="M93.1,465v13.9"/>
  <path class="st0" d="M94,465v13.9"/>
  <path class="st0" d="M94.9,465.8v12.4"/>
  <path class="st0" d="M95.8,465.8v12.4"/>
  <path class="st0" d="M96.8,463.5v17"/>
  <path class="st0" d="M97.7,463.5v17"/>
  <path class="st0" d="M98.6,463.5v17"/>
  <path class="st0" d="M99.5,466v11.9"/>
  <path class="st0" d="M100.5,466v11.9"/>
  <path class="st0" d="M101.4,466v11.9"/>
  <path class="st0" d="M102.3,466.6v10.8"/>
  <path class="st0" d="M103.2,466.6v10.8"/>
  <path class="st0" d="M104.2,467.1v9.7"/>
  <path class="st0" d="M105.1,467.1v9.7"/>
  <path class="st0" d="M106,467.1v9.7"/>
  <path class="st0" d="M106.9,465.5v13"/>
  <path class="st0" d="M107.9,465.5v13"/>
  <path class="st0" d="M108.8,468.4v7.2"/>
  <path class="st0" d="M109.7,468.4v7.2"/>
  <path class="st0" d="M110.6,468.4v7.2"/>
  <path class="st0" d="M111.6,465.3v13.4"/>
  <path class="st0" d="M112.5,465.3v13.4"/>
  <path class="st0" d="M113.4,465.3v13.4"/>
  <path class="st0" d="M114.3,469.8v4.4"/>
  <path class="st0" d="M115.2,469.8v4.4"/>
  <path class="st0" d="M116.2,470v3.9"/>
  <path class="st0" d="M117.1,470v3.9"/>
  <path class="st0" d="M118,470v3.9"/>
  <path class="st0" d="M118.9,468.2v7.5"/>
  <path class="st0" d="M119.9,468.2v7.5"/>
  <path class="st0" d="M120.8,468.2v7.5"/>
  <path class="st0" d="M121.7,463.6v16.8"/>
  <path class="st0" d="M122.6,463.6v16.8"/>
  <path class="st0" d="M123.6,462.2v19.7"/>
  <path class="st0" d="M124.5,462.2v19.7"/>
  <path class="st0" d="M125.4,470v3.9"/>
  <path class="st0" d="M126.3,470v3.9"/>
  <path class="st0" d="M127.3,470v3.9"/>
  <path class="st0" d="M128.2,470.3v3.5"/>
  <path class="st0" d="M129.1,470.3v3.5"/>
  <path class="st0" d="M130,470.3v3.5"/>
  <path class="st0" d="M131,470.5v3"/>
  <path class="st0" d="M131.9,470.5v3"/>
  <path class="st0" d="M132.8,468.4v7.1"/>
  <path class="st0" d="M133.7,468.4v7.1"/>
  <path class="st0" d="M134.6,468.4v7.1"/>
  <path class="st0" d="M135.6,469.3v5.4"/>
  <path class="st0" d="M136.5,469.3v5.4"/>
  <path class="st0" d="M137.4,469.3v5.4"/>
  <path class="st0" d="M138.3,463.2v17.6"/>
  <path class="st0" d="M139.3,463.2v17.6"/>
  <path class="st0" d="M140.2,467.2v9.5"/>
  <path class="st0" d="M141.1,467.2v9.5"/>
  <path class="st0" d="M142,468v8.1"/>
  <path class="st0" d="M143,468v8.1"/>
  <path class="st0" d="M143.9,468v8.1"/>
  <path class="st0" d="M144.8,465.3v13.4"/>
  <path class="st0" d="M145.7,465.3v13.4"/>
  <path class="st0" d="M146.7,465.3v13.4"/>
  <path class="st0" d="M147.6,465.4v13.2"/>
  <path class="st0" d="M148.5,465.4v13.2"/>
  <path class="st0" d="M149.4,467.6v8.8"/>
  <path class="st0" d="M150.4,467.6v8.8"/>
  <path class="st0" d="M151.3,467.6v8.8"/>
  <path class="st0" d="M152.2,466.2v11.6"/>
  <path class="st0" d="M153.1,466.2v11.6"/>
  <path class="st0" d="M154,459.3v25.4"/>
  <path class="st0" d="M155,459.3v25.4"/>
  <path class="st0" d="M155.9,459.3v25.4"/>
  <path class="st0" d="M156.8,466v12.1"/>
  <path class="st0" d="M157.7,466v12.1"/>
  <path class="st0" d="M158.7,466v12.1"/>
  <path class="st0" d="M159.6,465.6v12.7"/>
  <path class="st0" d="M160.5,465.6v12.7"/>
  <path class="st0" d="M161.4,468.9v6.3"/>
  <path class="st0" d="M162.4,468.9v6.3"/>
  <path class="st0" d="M163.3,468.9v6.3"/>
  <path class="st0" d="M164.2,468.5v7.1"/>
  <path class="st0" d="M165.1,468.5v7.1"/>
  <path class="st0" d="M166.1,468.5v7.1"/>
  <path class="st0" d="M167,470.1v3.9"/>
  <path class="st0" d="M167.9,470.1v3.9"/>
  <path class="st0" d="M168.8,469.9v4.1"/>
  <path class="st0" d="M169.8,469.9v4.1"/>
  <path class="st0" d="M170.7,469.9v4.2"/>
  <path class="st0" d="M171.6,469.9v4.2"/>
  <path class="st0" d="M172.5,469.9v4.2"/>
  <path class="st0" d="M173.4,468.7v6.6"/>
  <path class="st0" d="M174.4,468.7v6.6"/>
  <path class="st0" d="M175.3,468.7v6.6"/>
  <path class="st0" d="M176.2,469.4v5.2"/>
  <path class="st0" d="M177.1,469.4v5.2"/>
  <path class="st0" d="M178.1,469.4v5.2"/>
  <path class="st0" d="M179,468.3v7.4"/>
  <path class="st0" d="M179.9,468.3v7.4"/>
  <path class="st0" d="M180.8,468.5v7"/>
  <path class="st0" d="M181.8,468.5v7"/>
  <path class="st0" d="M182.7,468.5v7"/>
  <path class="st0" d="M183.6,464v15.9"/>
  <path class="st0" d="M184.5,464v15.9"/>
  <path class="st0" d="M185.5,461.6v20.8"/>
  <path class="st0" d="M186.4,461.6v20.8"/>
  <path class="st0" d="M187.3,461.6v20.8"/>
  <path class="st0" d="M188.2,455v34"/>
  <path class="st0" d="M189.2,455v34"/>
  <path class="st0" d="M190.1,434v76.1"/>
  <path class="st0" d="M191,434v76.1"/>
  <path class="st0" d="M191.9,434v76.1"/>
  <path class="st0" d="M192.8,448.4v47.3"/>
  <path class="st0" d="M193.8,448.4v47.3"/>
  <path class="st0" d="M194.7,455.9v32.2"/>
  <path class="st0" d="M195.6,455.9v32.2"/>
  <path class="st0" d="M196.5,455.9v32.2"/>
  <path class="st0" d="M197.5,460.7v22.5"/>
  <path class="st0" d="M198.4,460.7v22.5"/>
  <path class="st0" d="M199.3,460.7v22.5"/>
  <path class="st0" d="M200.2,462.4v19.1"/>
  <path class="st0" d="M201.2,462.4v19.1"/>
  <path class="st0" d="M202.1,443.6v56.8"/>
  <path class="st0" d="M203,443.6v56.8"/>
  <path class="st0" d="M203.9,446.8v50.3"/>
  <path class="st0" d="M204.9,446.8v50.3"/>
  <path class="st0" d="M205.8,446.8v50.3"/>
  <path class="st0" d="M206.7,444.9v54.1"/>
  <path class="st0" d="M207.6,444.9v54.1"/>
  <path class="st0" d="M208.6,444.9v54.1"/>
  <path class="st0" d="M209.5,427.1v89.7"/>
  <path class="st0" d="M210.4,427.1v89.7"/>
  <path class="st0" d="M211.3,430.4v83.2"/>
  <path class="st0" d="M212.2,430.4v83.2"/>
  <path class="st0" d="M213.2,430.4v83.2"/>
  <path class="st0" d="M214.1,401.7v140.5"/>
  <path class="st0" d="M215,401.7v140.5"/>
  <path class="st0" d="M215.9,447.5v49"/>
  <path class="st0" d="M216.9,447.5v49"/>
  <path class="st0" d="M217.8,447.5v49"/>
  <path class="st0" d="M218.7,444.3v55.5"/>
  <path class="st0" d="M219.6,444.3v55.5"/>
  <path class="st0" d="M220.6,449.4v45.2"/>
  <path class="st0" d="M221.5,449.4v45.2"/>
  <path class="st0" d="M222.4,449.4v45.2"/>
  <path class="st0" d="M223.3,458.2v27.6"/>
  <path class="st0" d="M224.3,458.2v27.6"/>
  <path class="st0" d="M225.2,458.2v27.6"/>
  <path class="st0" d="M226.1,468.7v6.7"/>
  <path class="st0" d="M227,468.7v6.7"/>
  <path class="st0" d="M228,449.8v44.3"/>
  <path class="st0" d="M228.9,449.8v44.3"/>
  <path class="st0" d="M229.8,449.8v44.3"/>
  <path class="st0" d="M230.7,446.5v51.1"/>
  <path class="st0" d="M231.6,446.5v51.1"/>
  <path class="st0" d="M232.6,446.5v51.1"/>
  <path class="st0" d="M233.5,463v18"/>
  <path class="st0" d="M234.4,463v18"/>
  <path class="st0" d="M235.3,456.1v31.9"/>
  <path class="st0" d="M236.3,456.1v31.9"/>
  <path class="st0" d="M237.2,458.5v27"/>
  <path class="st0" d="M238.1,458.5v27"/>
  <path class="st0" d="M239,458.5v27"/>
  <path class="st0" d="M240,465.7v12.6"/>
  <path class="st0" d="M240.9,465.7v12.6"/>
  <path class="st0" d="M241.8,465.7v12.6"/>
  <path class="st0" d="M242.7,466.8v10.4"/>
  <path class="st0" d="M243.7,466.8v10.4"/>
  <path class="st0" d="M244.6,466.8v10.4"/>
  <path class="st0" d="M245.5,469.3v5.3"/>
  <path class="st0" d="M246.4,469.3v5.3"/>
  <path class="st0" d="M247.4,469.9v4.1"/>
  <path class="st0" d="M248.3,469.9v4.1"/>
  <path class="st0" d="M249.2,470.4v3.2"/>
  <path class="st0" d="M250.1,470.4v3.2"/>
  <path class="st0" d="M251,470.4v3.2"/>
  <path class="st0" d="M252,469.9v4.2"/>
  <path class="st0" d="M252.9,469.9v4.2"/>
  <path class="st0" d="M253.8,469.9v4.2"/>
  <path class="st0" d="M254.7,470.7v2.6"/>
  <path class="st0" d="M255.7,470.7v2.6"/>
  <path class="st0" d="M256.6,470v3.9"/>
  <path class="st0" d="M257.5,470v3.9"/>
  <path class="st0" d="M258.4,470v3.9"/>
  <path class="st0" d="M259.4,470.6v2.8"/>
  <path class="st0" d="M260.3,470.6v2.8"/>
  <path class="st0" d="M261.2,470.6v2.8"/>
  <path class="st0" d="M262.1,467.4v9.2"/>
  <path class="st0" d="M263.1,467.4v9.2"/>
  <path class="st0" d="M264,466v12.1"/>
  <path class="st0" d="M264.9,466v12.1"/>
  <path class="st0" d="M265.8,461.2v21.5"/>
  <path class="st0" d="M266.8,461.2v21.5"/>
  <path class="st0" d="M267.7,461.2v21.5"/>
  <path class="st0" d="M268.6,468.2v7.6"/>
  <path class="st0" d="M269.5,468.2v7.6"/>
  <path class="st0" d="M270.4,468.2v7.6"/>
  <path class="st0" d="M271.4,459.6v24.8"/>
  <path class="st0" d="M272.3,459.6v24.8"/>
  <path class="st0" d="M273.2,466.3v11.5"/>
  <path class="st0" d="M274.1,466.3v11.5"/>
  <path class="st0" d="M275.1,466.3v11.5"/>
  <path class="st0" d="M276,464.1v15.7"/>
  <path class="st0" d="M276.9,464.1v15.7"/>
  <path class="st0" d="M277.8,464.1v15.7"/>
  <path class="st0" d="M278.8,446.8v50.5"/>
  <path class="st0" d="M279.7,446.8v50.5"/>
  <path class="st0" d="M280.6,453.7v36.6"/>
  <path class="st0" d="M281.5,453.7v36.6"/>
  <path class="st0" d="M282.5,467.1v9.7"/>
  <path class="st0" d="M283.4,467.1v9.7"/>
  <path class="st0" d="M284.3,467.1v9.7"/>
  <path class="st0" d="M285.2,463.2v17.6"/>
  <path class="st0" d="M286.2,463.2v17.6"/>
  <path class="st0" d="M287.1,463.2v17.6"/>
  <path class="st0" d="M288,457.6v28.8"/>
  <path class="st0" d="M288.9,457.6v28.8"/>
  <path class="st0" d="M289.8,457v30"/>
  <path class="st0" d="M290.8,457v30"/>
  <path class="st0" d="M291.7,457v30"/>
  <path class="st0" d="M292.6,451.6v40.8"/>
  <path class="st0" d="M293.5,451.6v40.8"/>
  <path class="st0" d="M294.5,451.6v40.8"/>
  <path class="st0" d="M295.4,466.3v11.3"/>
  <path class="st0" d="M296.3,466.3v11.3"/>
  <path class="st0" d="M297.2,402.5v138.9"/>
  <path class="st0" d="M298.2,402.5v138.9"/>
  <path class="st0" d="M299.1,396.3v151.4"/>
  <path class="st0" d="M300,396.3v151.4"/>
  <path class="st0" d="M300.9,396.3v151.4"/>
  <path class="st0" d="M301.9,422.5v98.9"/>
  <path class="st0" d="M302.8,422.5v98.9"/>
  <path class="st0" d="M303.7,422.5v98.9"/>
  <path class="st0" d="M304.6,460.8v22.4"/>
  <path class="st0" d="M305.6,460.8v22.4"/>
  <path class="st0" d="M306.5,460.5v23"/>
  <path class="st0" d="M307.4,460.5v23"/>
  <path class="st0" d="M308.3,460.5v23"/>
  <path class="st0" d="M309.2,421.9v100.2"/>
  <path class="st0" d="M310.2,421.9v100.2"/>
  <path class="st0" d="M311.1,421.9v100.2"/>
  <path class="st0" d="M312,447.8v48.3"/>
  <path class="st0" d="M312.9,447.8v48.3"/>
  <path class="st0" d="M313.9,459.1v25.9"/>
  <path class="st0" d="M314.8,459.1v25.9"/>
  <path class="st0" d="M315.7,457.4v29.2"/>
  <path class="st0" d="M316.6,457.4v29.2"/>
  <path class="st0" d="M317.6,457.4v29.2"/>
  <path class="st0" d="M318.5,454.9v34.1"/>
  <path class="st0" d="M319.4,454.9v34.1"/>
  <path class="st0" d="M320.3,454.9v34.1"/>
  <path class="st0" d="M321.3,465.7v12.6"/>
  <path class="st0" d="M322.2,465.7v12.6"/>
  <path class="st0" d="M323.1,463.8v16.4"/>
  <path class="st0" d="M324,463.8v16.4"/>
  <path class="st0" d="M325,463.8v16.4"/>
  <path class="st0" d="M325.9,462.8v18.4"/>
  <path class="st0" d="M326.8,462.8v18.4"/>
  <path class="st0" d="M327.7,462.8v18.4"/>
  <path class="st0" d="M328.6,458.6v26.7"/>
  <path class="st0" d="M329.6,458.6v26.7"/>
  <path class="st0" d="M330.5,469v5.9"/>
  <path class="st0" d="M331.4,466.6v10.8"/>
  <path class="st0" d="M332.3,466.6v10.8"/>
  <path class="st0" d="M333.3,466.6v10.8"/>
  <path class="st0" d="M334.2,467v10"/>
  <path class="st0" d="M335.1,467v10"/>
  <path class="st0" d="M336,467v10"/>
  <path class="st0" d="M337,466.5v11"/>
  <path class="st0" d="M337.9,466.5v11"/>
  <path class="st0" d="M338.8,464.6v14.7"/>
  <path class="st0" d="M339.7,464.6v14.7"/>
  <path class="st0" d="M340.7,464.6v14.7"/>
  <path class="st0" d="M341.6,461.1v21.8"/>
  <path class="st0" d="M342.5,461.1v21.8"/>
  <path class="st0" d="M343.4,456.7v30.6"/>
  <path class="st0" d="M344.4,456.7v30.6"/>
  <path class="st0" d="M345.3,456.7v30.6"/>
  <path class="st0" d="M346.2,459.5v25.1"/>
  <path class="st0" d="M347.1,459.5v25.1"/>
  <path class="st0" d="M348,449v45.9"/>
  <path class="st0" d="M349,449v45.9"/>
  <path class="st0" d="M349.9,449v45.9"/>
  <path class="st0" d="M350.8,450.8v42.3"/>
  <path class="st0" d="M351.7,450.8v42.3"/>
  <path class="st0" d="M352.7,450.8v42.3"/>
  <path class="st0" d="M353.6,449v46.1"/>
  <path class="st0" d="M354.5,449v46.1"/>
  <path class="st0" d="M355.4,431.4v81.3"/>
  <path class="st0" d="M356.4,431.4v81.3"/>
  <path class="st0" d="M357.3,431.4v81.3"/>
  <path class="st0" d="M358.2,460.5v22.9"/>
  <path class="st0" d="M359.1,460.5v22.9"/>
  <path class="st0" d="M360.1,455.2v33.7"/>
  <path class="st0" d="M361,455.2v33.7"/>
  <path class="st0" d="M361.9,455.2v33.7"/>
  <path class="st0" d="M362.8,445.2v53.6"/>
  <path class="st0" d="M363.8,445.2v53.6"/>
  <path class="st0" d="M364.7,445.2v53.6"/>
  <path class="st0" d="M365.6,457.1v29.9"/>
  <path class="st0" d="M366.5,457.1v29.9"/>
  <path class="st0" d="M367.4,460.5v23"/>
  <path class="st0" d="M368.4,460.5v23"/>
  <path class="st0" d="M369.3,460.5v23"/>
  <path class="st0" d="M370.2,459.6v24.8"/>
  <path class="st0" d="M371.1,459.6v24.8"/>
  <path class="st0" d="M372.1,459.6v24.8"/>
  <path class="st0" d="M373,456v32.1"/>
  <path class="st0" d="M373.9,456v32.1"/>
  <path class="st0" d="M374.8,453.9v36.3"/>
  <path class="st0" d="M375.8,453.9v36.3"/>
  <path class="st0" d="M376.7,454.7v34.5"/>
  <path class="st0" d="M377.6,454.7v34.5"/>
  <path class="st0" d="M378.5,454.7v34.5"/>
  <path class="st0" d="M379.5,444.7v54.5"/>
  <path class="st0" d="M380.4,444.7v54.5"/>
  <path class="st0" d="M381.3,444.7v54.5"/>
  <path class="st0" d="M382.2,465.6v12.7"/>
  <path class="st0" d="M383.2,465.6v12.7"/>
  <path class="st0" d="M384.1,466.1v11.8"/>
  <path class="st0" d="M385,466.1v11.8"/>
  <path class="st0" d="M385.9,466.1v11.8"/>
  <path class="st0" d="M386.8,460.6v22.8"/>
  <path class="st0" d="M387.8,460.6v22.8"/>
  <path class="st0" d="M388.7,460.6v22.8"/>
  <path class="st0" d="M389.6,460.5v22.9"/>
  <path class="st0" d="M390.5,460.5v22.9"/>
  <path class="st0" d="M391.5,465.4v13.3"/>
  <path class="st0" d="M392.4,465.4v13.3"/>
  <path class="st0" d="M393.3,465.6v12.7"/>
  <path class="st0" d="M394.2,465.6v12.7"/>
  <path class="st0" d="M395.2,465.6v12.7"/>
  <path class="st0" d="M396.1,452.6v38.7"/>
  <path class="st0" d="M397,452.6v38.7"/>
  <path class="st0" d="M397.9,452.6v38.7"/>
  <path class="st0" d="M398.9,456.1v31.8"/>
  <path class="st0" d="M399.8,456.1v31.8"/>
  <path class="st0" d="M400.7,461.7v20.7"/>
  <path class="st0" d="M401.6,461.7v20.7"/>
  <path class="st0" d="M402.6,461.7v20.7"/>
  <path class="st0" d="M403.5,464.4v15.2"/>
  <path class="st0" d="M404.4,464.4v15.2"/>
  <path class="st0" d="M405.3,464.4v15.2"/>
  <path class="st0" d="M406.2,466.8v10.3"/>
  <path class="st0" d="M407.2,466.8v10.3"/>
  <path class="st0" d="M408.1,460.8v22.4"/>
  <path class="st0" d="M409,460.8v22.4"/>
  <path class="st0" d="M409.9,460.8v22.4"/>
  <path class="st0" d="M410.9,449v46"/>
  <path class="st0" d="M411.8,449v46"/>
  <path class="st0" d="M412.7,434.3v75.5"/>
  <path class="st0" d="M413.6,434.3v75.5"/>
  <path class="st0" d="M414.6,427.7v88.7"/>
  <path class="st0" d="M415.5,427.7v88.7"/>
  <path class="st0" d="M416.4,438.7v66.6"/>
  <path class="st0" d="M417.3,438.7v66.6"/>
  <path class="st0" d="M418.3,438.7v66.6"/>
  <path class="st0" d="M419.2,429.3v85.3"/>
  <path class="st0" d="M420.1,429.3v85.3"/>
  <path class="st0" d="M421,429.3v85.3"/>
  <path class="st0" d="M422,451.6v40.8"/>
  <path class="st0" d="M422.9,451.6v40.8"/>
  <path class="st0" d="M423.8,452.6v38.9"/>
  <path class="st0" d="M424.7,452.6v38.9"/>
  <path class="st0" d="M425.6,461.4v21.2"/>
  <path class="st0" d="M426.6,461.4v21.2"/>
  <path class="st0" d="M427.5,461.4v21.2"/>
  <path class="st0" d="M428.4,460.5v23.1"/>
  <path class="st0" d="M429.3,460.5v23.1"/>
  <path class="st0" d="M430.3,460.5v23.1"/>
  <path class="st0" d="M431.2,461.4v21.1"/>
  <path class="st0" d="M432.1,461.4v21.1"/>
  <path class="st0" d="M433,464.6v14.8"/>
  <path class="st0" d="M434,464.6v14.8"/>
  <path class="st0" d="M434.9,464.6v14.8"/>
  <path class="st0" d="M435.8,433.2v77.6"/>
  <path class="st0" d="M436.7,433.2v77.6"/>
  <path class="st0" d="M437.7,448.9v46.1"/>
  <path class="st0" d="M438.6,448.9v46.1"/>
  <path class="st0" d="M439.5,448.9v46.1"/>
  <path class="st0" d="M440.4,464v16"/>
  <path class="st0" d="M441.4,453.7v36.6"/>
  <path class="st0" d="M442.3,453.7v36.6"/>
  <path class="st0" d="M443.2,453.7v36.6"/>
  <path class="st0" d="M444.1,433.3v77.4"/>
  <path class="st0" d="M445,433.3v77.4"/>
  <path class="st0" d="M446,433.3v77.4"/>
  <path class="st0" d="M446.9,418.6v106.7"/>
  <path class="st0" d="M447.8,418.6v106.7"/>
  <path class="st0" d="M448.7,447.1v49.9"/>
  <path class="st0" d="M449.7,447.1v49.9"/>
  <path class="st0" d="M450.6,447.1v49.9"/>
  <path class="st0" d="M451.5,447.3v49.4"/>
  <path class="st0" d="M452.4,447.3v49.4"/>
  <path class="st0" d="M453.4,461.6v20.7"/>
  <path class="st0" d="M454.3,461.6v20.7"/>
  <path class="st0" d="M455.2,461.6v20.7"/>
  <path class="st0" d="M456.1,466v12"/>
  <path class="st0" d="M457.1,466v12"/>
  <path class="st0" d="M458,466v12"/>
  <path class="st0" d="M458.9,466.8v10.4"/>
  <path class="st0" d="M459.8,466.8v10.4"/>
  <path class="st0" d="M460.8,464.5v15"/>
  <path class="st0" d="M461.7,464.5v15"/>
  <path class="st0" d="M462.6,464.5v15"/>
  <path class="st0" d="M463.5,462v20"/>
  <path class="st0" d="M464.4,462v20"/>
  <path class="st0" d="M465.4,462v20"/>
  <path class="st0" d="M466.3,458v27.9"/>
  <path class="st0" d="M467.2,458v27.9"/>
  <path class="st0" d="M468.1,445v54"/>
  <path class="st0" d="M469.1,445v54"/>
  <path class="st0" d="M470,437v70"/>
  <path class="st0" d="M470.9,437v70"/>
  <path class="st0" d="M471.8,437v70"/>
  <path class="st0" d="M472.8,455.8v32.3"/>
  <path class="st0" d="M473.7,455.8v32.3"/>
  <path class="st0" d="M474.6,455.8v32.3"/>
  <path class="st0" d="M475.5,455.4v33.3"/>
  <path class="st0" d="M476.5,455.4v33.3"/>
  <path class="st0" d="M477.4,460.5v22.9"/>
  <path class="st0" d="M478.3,460.5v22.9"/>
  <path class="st0" d="M479.2,460.5v22.9"/>
  <path class="st0" d="M480.2,429.9v84.2"/>
  <path class="st0" d="M481.1,429.9v84.2"/>
  <path class="st0" d="M482,456.2v31.5"/>
  <path class="st0" d="M482.9,456.2v31.5"/>
  <path class="st0" d="M483.9,456.2v31.5"/>
  <path class="st0" d="M484.8,465.5v13"/>
  <path class="st0" d="M485.7,465.5v13"/>
  <path class="st0" d="M486.6,462.7v18.6"/>
  <path class="st0" d="M487.5,462.7v18.6"/>
  <path class="st0" d="M488.5,462.7v18.6"/>
  <path class="st0" d="M489.4,447.4v49.2"/>
  <path class="st0" d="M490.3,447.4v49.2"/>
  <path class="st0" d="M491.2,448.2v47.6"/>
  <path class="st0" d="M492.2,448.2v47.6"/>
  <path class="st0" d="M493.1,448.2v47.6"/>
  <path class="st0" d="M494,456.3v31.4"/>
  <path class="st0" d="M494.9,456.3v31.4"/>
  <path class="st0" d="M495.9,452.7v38.6"/>
  <path class="st0" d="M496.8,452.7v38.6"/>
  <path class="st0" d="M497.7,456.7v30.6"/>
  <path class="st0" d="M498.6,456.7v30.6"/>
  <path class="st0" d="M499.6,456.7v30.6"/>
  <path class="st0" d="M500.5,467.5v9"/>
  <path class="st0" d="M501.4,467.5v9"/>
  <path class="st0" d="M502.3,462.2v19.6"/>
  <path class="st0" d="M503.3,462.2v19.6"/>
  <path class="st0" d="M504.2,462.2v19.6"/>
  <path class="st0" d="M505.1,453.1v37.9"/>
  <path class="st0" d="M506,453.1v37.9"/>
  <path class="st0" d="M506.9,453.1v37.9"/>
  <path class="st0" d="M507.9,456.1v31.9"/>
  <path class="st0" d="M508.8,456.1v31.9"/>
  <path class="st0" d="M509.7,449.7v44.5"/>
  <path class="st0" d="M510.6,449.7v44.5"/>
  <path class="st0" d="M511.6,449.7v44.5"/>
  <path class="st0" d="M512.5,452.4v39.1"/>
  <path class="st0" d="M513.4,452.4v39.1"/>
  <path class="st0" d="M514.3,463.6v16.7"/>
  <path class="st0" d="M515.3,463.6v16.7"/>
  <path class="st0" d="M516.2,463.6v16.7"/>
  <path class="st0" d="M517.1,466.8v10.4"/>
  <path class="st0" d="M518,466.8v10.4"/>
  <path class="st0" d="M519,468.4v7.2"/>
  <path class="st0" d="M519.9,468.4v7.2"/>
  <path class="st0" d="M520.8,468.4v7.2"/>
  <path class="st0" d="M521.7,464.5v15"/>
  <path class="st0" d="M522.7,464.5v15"/>
  <path class="st0" d="M523.6,467.3v9.4"/>
  <path class="st0" d="M524.5,467.3v9.4"/>
  <path class="st0" d="M525.4,468.6v6.9"/>
  <path class="st0" d="M526.3,468.6v6.9"/>
  <path class="st0" d="M527.3,468.1v7.8"/>
  <path class="st0" d="M528.2,468.1v7.8"/>
  <path class="st0" d="M529.1,468.1v7.8"/>
  <path class="st0" d="M530,468.4v7.2"/>
  <path class="st0" d="M531,468.4v7.2"/>
  <path class="st0" d="M531.9,468.4v7.2"/>
  <path class="st0" d="M532.8,470.1v3.8"/>
  <path class="st0" d="M533.7,470.1v3.8"/>
  <path class="st0" d="M534.7,468.3v7.3"/>
  <path class="st0" d="M535.6,468.3v7.3"/>
  <path class="st0" d="M536.5,468.3v7.3"/>
  <path class="st0" d="M537.4,462.5v19"/>
  <path class="st0" d="M538.4,462.5v19"/>
  <path class="st0" d="M539.3,464.3v15.5"/>
  <path class="st0" d="M540.2,464.3v15.5"/>
  <path class="st0" d="M541.1,464.3v15.5"/>
  <path class="st0" d="M542.1,468.1v7.7"/>
  <path class="st0" d="M543,466.2v11.6"/>
  <path class="st0" d="M543.9,466.2v11.6"/>
  <path class="st0" d="M544.8,466.2v11.6"/>
  <path class="st0" d="M545.7,469.1v5.8"/>
  <path class="st0" d="M546.7,469.1v5.8"/>
  <path class="st0" d="M547.6,469.9v4.3"/>
  <path class="st0" d="M548.5,469.9v4.3"/>
  <path class="st0" d="M549.4,469.9v4.3"/>
  <path class="st0" d="M550.4,470.1v3.8"/>
  <path class="st0" d="M551.3,470.1v3.8"/>
  <path class="st0" d="M552.2,470.1v3.8"/>
  <path class="st0" d="M553.1,455.9v32.2"/>
  <path class="st0" d="M554.1,455.9v32.2"/>
  <path class="st0" d="M555,465.1v13.9"/>
  <path class="st0" d="M555.9,465.1v13.9"/>
  <path class="st0" d="M556.8,465.1v13.9"/>
  <path class="st0" d="M557.8,462.9v18.2"/>
  <path class="st0" d="M558.7,462.9v18.2"/>
  <path class="st0" d="M559.6,462.1v19.7"/>
  <path class="st0" d="M560.5,462.1v19.7"/>
  <path class="st0" d="M561.5,457.2v29.7"/>
  <path class="st0" d="M562.4,457.2v29.7"/>
  <path class="st0" d="M563.3,457.2v29.7"/>
  <path class="st0" d="M564.2,461.5v20.9"/>
  <path class="st0" d="M565.1,461.5v20.9"/>
  <path class="st0" d="M566.1,463.4v17.3"/>
  <path class="st0" d="M567,463.4v17.3"/>
  <path class="st0" d="M567.9,463.4v17.3"/>
  <path class="st0" d="M568.8,465.4v13.2"/>
  <path class="st0" d="M569.8,465.4v13.2"/>
  <path class="st0" d="M570.7,465.4v13.2"/>
  <path class="st0" d="M571.6,465.9v12.1"/>
  <path class="st0" d="M572.5,465.9v12.1"/>
  <path class="st0" d="M573.5,465.4v13.3"/>
  <path class="st0" d="M574.4,465.4v13.3"/>
  <path class="st0" d="M575.3,453.4v37.3"/>
  <path class="st0" d="M576.2,453.4v37.3"/>
  <path class="st0" d="M577.2,453.4v37.3"/>
  <path class="st0" d="M578.1,455.4v33.2"/>
  <path class="st0" d="M579,455.4v33.2"/>
  <path class="st0" d="M579.9,453.5v37.1"/>
  <path class="st0" d="M580.9,453.5v37.1"/>
  <path class="st0" d="M581.8,452.3v39.5"/>
  <path class="st0" d="M582.7,452.3v39.5"/>
  <path class="st0" d="M583.6,452.3v39.5"/>
  <path class="st0" d="M584.5,452.3v39.5"/>
  <path class="st0" d="M585.5,452.3v39.5"/>
  <path class="st0" d="M586.4,452.5v38.9"/>
  <path class="st0" d="M587.3,452.5v38.9"/>
  <path class="st0" d="M588.2,452.5v38.9"/>
  <path class="st0" d="M589.2,423.6v96.8"/>
  <path class="st0" d="M590.1,419.5v104.9"/>
  <path class="st0" d="M591,419.5v104.9"/>
  <path class="st0" d="M591.9,419.5v104.9"/>
  <path class="st0" d="M592.9,445.6v52.7"/>
  <path class="st0" d="M593.8,445.6v52.7"/>
  <path class="st0" d="M594.7,445.6v52.7"/>
  <path class="st0" d="M595.6,444.9v54.3"/>
  <path class="st0" d="M596.6,444.9v54.3"/>
  <path class="st0" d="M597.5,415v114.1"/>
  <path class="st0" d="M598.4,415v114.1"/>
  <path class="st0" d="M599.3,437.4v69.2"/>
  <path class="st0" d="M600.3,437.4v69.2"/>
  <path class="st0" d="M601.2,436.7v70.6"/>
  <path class="st0" d="M602.1,436.7v70.6"/>
  <path class="st0" d="M603,436.7v70.6"/>
  <path class="st0" d="M603.9,458.4v27.1"/>
  <path class="st0" d="M604.9,458.4v27.1"/>
  <path class="st0" d="M605.8,457.3v29.5"/>
  <path class="st0" d="M606.7,457.3v29.5"/>
  <path class="st0" d="M607.6,457.3v29.5"/>
  <path class="st0" d="M608.6,435.9v72.2"/>
  <path class="st0" d="M609.5,435.9v72.2"/>
  <path class="st0" d="M610.4,435.9v72.2"/>
  <path class="st0" d="M611.3,448.2v47.5"/>
  <path class="st0" d="M612.3,448.2v47.5"/>
  <path class="st0" d="M613.2,461.6v20.7"/>
  <path class="st0" d="M614.1,461.6v20.7"/>
  <path class="st0" d="M615,461.6v20.7"/>
  <path class="st0" d="M616,455.5v32.9"/>
  <path class="st0" d="M616.9,401.6v140.9"/>
  <path class="st0" d="M617.8,401.6v140.9"/>
  <path class="st0" d="M618.7,401.6v140.9"/>
  <path class="st0" d="M619.7,430.3v83.4"/>
  <path class="st0" d="M620.6,430.3v83.4"/>
  <path class="st0" d="M621.5,442.3v59.4"/>
  <path class="st0" d="M622.4,442.3v59.4"/>
  <path class="st0" d="M623.3,442.3v59.4"/>
  <path class="st0" d="M624.3,450.9v42.2"/>
  <path class="st0" d="M625.2,450.9v42.2"/>
  <path class="st0" d="M626.1,450.9v42.2"/>
  <path class="st0" d="M627,454.2v35.6"/>
  <path class="st0" d="M628,454.2v35.6"/>
  <path class="st0" d="M628.9,452.4v39.2"/>
  <path class="st0" d="M629.8,452.4v39.2"/>
  <path class="st0" d="M630.7,442.8v58.4"/>
  <path class="st0" d="M631.7,442.8v58.4"/>
  <path class="st0" d="M632.6,442.8v58.4"/>
  <path class="st0" d="M633.5,431.9v80.3"/>
  <path class="st0" d="M634.4,431.9v80.3"/>
  <path class="st0" d="M635.4,442.9v58.2"/>
  <path class="st0" d="M636.3,442.9v58.2"/>
  <path class="st0" d="M637.2,440.5v62.9"/>
  <path class="st0" d="M638.1,440.5v62.9"/>
  <path class="st0" d="M639.1,440.5v62.9"/>
  <path class="st0" d="M640,459.1v25.8"/>
  <path class="st0" d="M640.9,459.1v25.8"/>
  <path class="st0" d="M641.8,459.1v25.8"/>
  <path class="st0" d="M642.7,400.1v143.7"/>
  <path class="st0" d="M643.7,400.1v143.7"/>
  <path class="st0" d="M644.6,442v60"/>
  <path class="st0" d="M645.5,419.3v105.4"/>
  <path class="st0" d="M646.4,419.3v105.4"/>
  <path class="st0" d="M647.4,419.3v105.4"/>
  <path class="st0" d="M648.3,418.2v107.6"/>
  <path class="st0" d="M649.2,418.2v107.6"/>
  <path class="st0" d="M650.1,418.2v107.6"/>
  <path class="st0" d="M651.1,426.6v90.7"/>
  <path class="st0" d="M652,426.6v90.7"/>
  <path class="st0" d="M652.9,439.7v64.6"/>
  <path class="st0" d="M653.8,439.7v64.6"/>
  <path class="st0" d="M654.8,436.9v70.2"/>
  <path class="st0" d="M655.7,436.9v70.2"/>
  <path class="st0" d="M656.6,436.9v70.2"/>
  <path class="st0" d="M657.5,422.1v99.8"/>
  <path class="st0" d="M658.5,422.1v99.8"/>
  <path class="st0" d="M659.4,403.7v136.5"/>
  <path class="st0" d="M660.3,403.7v136.5"/>
  <path class="st0" d="M661.2,358.7v226.7"/>
  <path class="st0" d="M662.1,358.7v226.7"/>
  <path class="st0" d="M663.1,409v126.1"/>
  <path class="st0" d="M664,409v126.1"/>
  <path class="st0" d="M664.9,409v126.1"/>
  <path class="st0" d="M665.8,393.9v156.3"/>
  <path class="st0" d="M666.8,393.9v156.3"/>
  <path class="st0" d="M667.7,408.4v127.2"/>
  <path class="st0" d="M668.6,408.4v127.2"/>
  <path class="st0" d="M669.5,408.4v127.2"/>
  <path class="st0" d="M670.5,415.6v112.7"/>
  <path class="st0" d="M671.4,415.6v112.7"/>
  <path class="st0" d="M672.3,445.8v52.5"/>
  <path class="st0" d="M673.2,445.8v52.5"/>
  <path class="st0" d="M674.2,428.3v87.4"/>
  <path class="st0" d="M675.1,428.3v87.4"/>
  <path class="st0" d="M676,423.2v97.6"/>
  <path class="st0" d="M676.9,423.2v97.6"/>
  <path class="st0" d="M677.9,423.2v97.6"/>
  <path class="st0" d="M678.8,416.8v110.4"/>
  <path class="st0" d="M679.7,416.8v110.4"/>
  <path class="st0" d="M680.6,434v76"/>
  <path class="st0" d="M681.5,434v76"/>
  <path class="st0" d="M682.5,446.3v51.3"/>
  <path class="st0" d="M683.4,446.3v51.3"/>
  <path class="st0" d="M684.3,446.3v51.3"/>
  <path class="st0" d="M685.2,436v72.1"/>
  <path class="st0" d="M686.2,436v72.1"/>
  <path class="st0" d="M687.1,452.2v39.6"/>
  <path class="st0" d="M688,452.2v39.6"/>
  <path class="st0" d="M688.9,452.2v39.6"/>
  <path class="st0" d="M689.9,466.4v11.2"/>
  <path class="st0" d="M690.8,460v23.9"/>
  <path class="st0" d="M691.7,460v23.9"/>
  <path class="st0" d="M692.6,460v23.9"/>
  <path class="st0" d="M693.6,463.2v17.7"/>
  <path class="st0" d="M694.5,463.2v17.7"/>
  <path class="st0" d="M695.4,463.2v17.7"/>
  <path class="st0" d="M696.3,455.7v32.6"/>
  <path class="st0" d="M697.3,455.7v32.6"/>
  <path class="st0" d="M698.2,461.3v21.4"/>
  <path class="st0" d="M699.1,461.3v21.4"/>
  <path class="st0" d="M700,452.5v39"/>
  <path class="st0" d="M700.9,452.5v39"/>
  <path class="st0" d="M701.9,459.1v25.7"/>
  <path class="st0" d="M702.8,459.1v25.7"/>
  <path class="st0" d="M703.7,459.1v25.7"/>
  <path class="st0" d="M704.6,442v59.9"/>
  <path class="st0" d="M705.6,442v59.9"/>
  <path class="st0" d="M706.5,451.1v41.9"/>
  <path class="st0" d="M707.4,451.1v41.9"/>
  <path class="st0" d="M708.3,466.1v11.9"/>
  <path class="st0" d="M709.3,466.1v11.9"/>
  <path class="st0" d="M710.2,456.6v30.9"/>
  <path class="st0" d="M711.1,456.6v30.9"/>
  <path class="st0" d="M712,456.6v30.9"/>
  <path class="st0" d="M713,451.6v40.7"/>
  <path class="st0" d="M713.9,451.6v40.7"/>
  <path class="st0" d="M714.8,451.6v40.7"/>
  <path class="st0" d="M715.7,451.5v41"/>
  <path class="st0" d="M716.7,451.5v41"/>
  <path class="st0" d="M717.6,448.4v47.2"/>
  <path class="st0" d="M718.5,448.4v47.2"/>
  <path class="st0" d="M719.4,459.4v25.1"/>
  <path class="st0" d="M720.3,459.4v25.1"/>
  <path class="st0" d="M721.3,459.4v25.1"/>
  <path class="st0" d="M722.2,460.7v22.6"/>
  <path class="st0" d="M723.1,460.7v22.6"/>
  <path class="st0" d="M724,446.7v50.5"/>
  <path class="st0" d="M725,446.7v50.5"/>
  <path class="st0" d="M725.9,446.7v50.5"/>
  <path class="st0" d="M726.8,451.8v40.4"/>
  <path class="st0" d="M727.7,464.1v15.7"/>
  <path class="st0" d="M728.7,464.1v15.7"/>
  <path class="st0" d="M729.6,464.1v15.7"/>
  <path class="st0" d="M730.5,449.5v45"/>
  <path class="st0" d="M731.4,449.5v45"/>
  <path class="st0" d="M732.4,422.8v98.3"/>
  <path class="st0" d="M733.3,422.8v98.3"/>
  <path class="st0" d="M734.2,422.8v98.3"/>
  <path class="st0" d="M735.1,447.5v49"/>
  <path class="st0" d="M736.1,433.4v77.1"/>
  <path class="st0" d="M737,433.4v77.1"/>
  <path class="st0" d="M737.9,433.4v77.1"/>
  <path class="st0" d="M738.8,422.5v98.9"/>
  <path class="st0" d="M739.7,422.5v98.9"/>
  <path class="st0" d="M740.7,422.5v98.9"/>
  <path class="st0" d="M741.6,354.8v234.3"/>
  <path class="st0" d="M742.5,354.8v234.3"/>
  <path class="st0" d="M743.4,430.4v83.3"/>
  <path class="st0" d="M744.4,430.4v83.3"/>
  <path class="st0" d="M745.3,445.1v53.7"/>
  <path class="st0" d="M746.2,445.1v53.7"/>
  <path class="st0" d="M747.1,446.8v50.3"/>
  <path class="st0" d="M748.1,446.8v50.3"/>
  <path class="st0" d="M749,446.8v50.3"/>
  <path class="st0" d="M749.9,422.6v98.8"/>
  <path class="st0" d="M750.8,422.6v98.8"/>
  <path class="st0" d="M751.8,407.9v128.2"/>
  <path class="st0" d="M752.7,407.9v128.2"/>
  <path class="st0" d="M753.6,407.9v128.2"/>
  <path class="st0" d="M754.5,439v66"/>
  <path class="st0" d="M755.5,439v66"/>
  <path class="st0" d="M756.4,460.6v22.9"/>
  <path class="st0" d="M757.3,460.6v22.9"/>
  <path class="st0" d="M758.2,469.8v4.5"/>
  <path class="st0" d="M759.1,469.8v4.5"/>
  <path class="st0" d="M760.1,469.1v5.8"/>
  <path class="st0" d="M761,469.1v5.8"/>
  <path class="st0" d="M761.9,469.1v5.8"/>
  <path class="st0" d="M762.8,468v8"/>
  <path class="st0" d="M763.8,468v8"/>
  <path class="st0" d="M764.7,470.2v3.6"/>
  <path class="st0" d="M765.6,470.2v3.6"/>
  <path class="st0" d="M766.5,467.8v8.4"/>
  <path class="st0" d="M767.5,467.8v8.4"/>
  <path class="st0" d="M768.4,467.8v8.4"/>
  <path class="st0" d="M769.3,469.7v4.6"/>
  <path class="st0" d="M770.2,469.7v4.6"/>
  <path class="st0" d="M771.2,469.7v4.6"/>
  <path class="st0" d="M772.1,470.6v2.8"/>
  <path class="st0" d="M773,470.7v2.7"/>
  <path class="st0" d="M773.9,470.7v2.7"/>
  <path class="st0" d="M774.9,470.7v2.7"/>
  <path class="st0" d="M775.8,470.6v2.9"/>
  <path class="st0" d="M776.7,470.6v2.9"/>
  <path class="st0" d="M777.6,463.6v16.7"/>
  <path class="st0" d="M778.5,463.6v16.7"/>
  <path class="st0" d="M779.5,463.6v16.7"/>
  <path class="st0" d="M780.4,454.3v35.3"/>
  <path class="st0" d="M781.3,454.3v35.3"/>
  <path class="st0" d="M782.2,455.7v32.7"/>
  <path class="st0" d="M783.2,455.7v32.7"/>
  <path class="st0" d="M784.1,461.3v21.4"/>
  <path class="st0" d="M785,461.3v21.4"/>
  <path class="st0" d="M785.9,458.1v27.7"/>
  <path class="st0" d="M786.9,458.1v27.7"/>
  <path class="st0" d="M787.8,458.1v27.7"/>
  <path class="st0" d="M788.7,458.8v26.5"/>
  <path class="st0" d="M789.6,458.8v26.5"/>
  <path class="st0" d="M790.6,458.8v26.5"/>
  <path class="st0" d="M791.5,464.5v15"/>
  <path class="st0" d="M792.4,464v16.1"/>
  <path class="st0" d="M793.3,464v16.1"/>
  <path class="st0" d="M794.3,464v16.1"/>
  <path class="st0" d="M795.2,436.2v71.5"/>
  <path class="st0" d="M796.1,436.2v71.5"/>
  <path class="st0" d="M797,444v55.9"/>
  <path class="st0" d="M797.9,444v55.9"/>
  <path class="st0" d="M798.9,444v55.9"/>
  <path class="st0" d="M799.8,453.4v37.3"/>
  <path class="st0" d="M800.7,453.4v37.3"/>
  <path class="st0" d="M801.6,464v16"/>
  <path class="st0" d="M802.6,464v16"/>
  <path class="st0" d="M803.5,468.4v7.1"/>
  <path class="st0" d="M804.4,468.4v7.1"/>
  <path class="st0" d="M805.3,468.4v7.1"/>
  <path class="st0" d="M806.3,466.2v11.6"/>
  <path class="st0" d="M807.2,466.2v11.6"/>
  <path class="st0" d="M808.1,464.2v15.6"/>
  <path class="st0" d="M809,464.2v15.6"/>
  <path class="st0" d="M810,464.9v14.3"/>
  <path class="st0" d="M810.9,464.9v14.3"/>
  <path class="st0" d="M811.8,465.7v12.5"/>
  <path class="st0" d="M812.7,465.7v12.5"/>
  <path class="st0" d="M813.7,465.7v12.5"/>
  <path class="st0" d="M814.6,462.3v19.5"/>
  <path class="st0" d="M815.5,462.3v19.5"/>
  <path class="st0" d="M816.4,464.8v14.3"/>
  <path class="st0" d="M817.3,464.8v14.3"/>
  <path class="st0" d="M818.3,464.8v14.3"/>
  <path class="st0" d="M819.2,455.1v33.9"/>
  <path class="st0" d="M820.1,455.1v33.9"/>
  <path class="st0" d="M821,463.4v17.2"/>
  <path class="st0" d="M822,463.4v17.2"/>
  <path class="st0" d="M822.9,465.2v13.6"/>
  <path class="st0" d="M823.8,465.2v13.6"/>
  <path class="st0" d="M824.7,465.2v13.6"/>
  <path class="st0" d="M825.7,467.1v9.9"/>
  <path class="st0" d="M826.6,467.1v9.9"/>
  <path class="st0" d="M827.5,460.3v23.3"/>
  <path class="st0" d="M828.4,460.3v23.3"/>
  <path class="st0" d="M829.4,458.8v26.5"/>
  <path class="st0" d="M830.3,458.8v26.5"/>
  <path class="st0" d="M831.2,465v14"/>
  <path class="st0" d="M832.1,465v14"/>
  <path class="st0" d="M833.1,465v14"/>
  <path class="st0" d="M834,455v33.9"/>
  <path class="st0" d="M834.9,455v33.9"/>
  <path class="st0" d="M835.8,455v33.9"/>
  <path class="st0" d="M836.7,459.9v24.2"/>
  <path class="st0" d="M837.7,460.2v23.6"/>
  <path class="st0" d="M838.6,460.2v23.6"/>
  <path class="st0" d="M839.5,460.2v23.6"/>
  <path class="st0" d="M840.4,467.6v8.9"/>
  <path class="st0" d="M841.4,467.6v8.9"/>
  <path class="st0" d="M842.3,452.5v38.9"/>
  <path class="st0" d="M843.2,452.5v38.9"/>
  <path class="st0" d="M844.1,452.5v38.9"/>
  <path class="st0" d="M845.1,434v76"/>
  <path class="st0" d="M846,434v76"/>
  <path class="st0" d="M846.9,431.8v80.4"/>
  <path class="st0" d="M847.8,431.8v80.4"/>
  <path class="st0" d="M848.8,458.7v26.6"/>
  <path class="st0" d="M849.7,458.7v26.6"/>
  <path class="st0" d="M850.6,455.4v33.2"/>
  <path class="st0" d="M851.5,455.4v33.2"/>
  <path class="st0" d="M852.5,455.4v33.2"/>
  <path class="st0" d="M853.4,462.3v19.4"/>
  <path class="st0" d="M854.3,462.3v19.4"/>
  <path class="st0" d="M855.2,462.3v19.4"/>
  <path class="st0" d="M856.1,454.1v35.7"/>
  <path class="st0" d="M857.1,458.3v27.3"/>
  <path class="st0" d="M858,458.3v27.3"/>
  <path class="st0" d="M858.9,434.6v74.8"/>
  <path class="st0" d="M859.8,434.6v74.8"/>
  <path class="st0" d="M860.8,434.6v74.8"/>
  <path class="st0" d="M861.7,450v44"/>
  <path class="st0" d="M862.6,450v44"/>
  <path class="st0" d="M863.5,450v44"/>
  <path class="st0" d="M864.5,445.9v52.1"/>
  <path class="st0" d="M865.4,445.9v52.1"/>
  <path class="st0" d="M866.3,424.1v95.7"/>
  <path class="st0" d="M867.2,424.1v95.7"/>
  <path class="st0" d="M868.2,449.7v44.7"/>
  <path class="st0" d="M869.1,449.7v44.7"/>
  <path class="st0" d="M870,449.7v44.7"/>
  <path class="st0" d="M870.9,443.3v57.5"/>
  <path class="st0" d="M871.9,443.3v57.5"/>
  <path class="st0" d="M872.8,459.9v24.2"/>
  <path class="st0" d="M873.7,459.9v24.2"/>
  <path class="st0" d="M874.6,445.4v53.2"/>
  <path class="st0" d="M875.5,445.4v53.2"/>
  <path class="st0" d="M876.5,456.7v30.6"/>
  <path class="st0" d="M877.4,456.7v30.6"/>
  <path class="st0" d="M878.3,460.4v23.2"/>
  <path class="st0" d="M879.2,460.4v23.2"/>
  <path class="st0" d="M880.2,460.4v23.2"/>
  <path class="st0" d="M881.1,456.4v31.3"/>
  <path class="st0" d="M882,456.4v31.3"/>
  <path class="st0" d="M882.9,444v56"/>
  <path class="st0" d="M883.9,444v56"/>
  <path class="st0" d="M884.8,455.4v33.2"/>
  <path class="st0" d="M885.7,455.4v33.2"/>
  <path class="st0" d="M886.6,445.6v52.7"/>
  <path class="st0" d="M887.6,445.6v52.7"/>
  <path class="st0" d="M888.5,445.6v52.7"/>
  <path class="st0" d="M889.4,427.7v88.6"/>
  <path class="st0" d="M890.3,427.7v88.6"/>
  <path class="st0" d="M891.3,440v64.1"/>
  <path class="st0" d="M892.2,440v64.1"/>
  <path class="st0" d="M893.1,449.2v45.6"/>
  <path class="st0" d="M894,449.2v45.6"/>
  <path class="st0" d="M894.9,449.2v45.6"/>
  <path class="st0" d="M895.9,432.3v79.4"/>
  <path class="st0" d="M896.8,432.3v79.4"/>
  <path class="st0" d="M897.7,457.4v29.1"/>
  <path class="st0" d="M898.6,457.4v29.1"/>
  <path class="st0" d="M899.6,457.4v29.1"/>
  <path class="st0" d="M900.5,450.3v43.4"/>
  <path class="st0" d="M901.4,450.3v43.4"/>
  <path class="st0" d="M902.3,456.6v30.8"/>
  <path class="st0" d="M903.3,463.6v16.9"/>
  <path class="st0" d="M904.2,463.6v16.9"/>
  <path class="st0" d="M905.1,446.8v50.4"/>
  <path class="st0" d="M906,446.8v50.4"/>
  <path class="st0" d="M907,446.8v50.4"/>
  <path class="st0" d="M907.9,441.6v60.7"/>
  <path class="st0" d="M908.8,441.6v60.7"/>
  <path class="st0" d="M909.7,441.6v60.7"/>
  <path class="st0" d="M910.7,456v31.9"/>
  <path class="st0" d="M911.6,447v50"/>
  <path class="st0" d="M912.5,447v50"/>
  <path class="st0" d="M913.4,453.8v36.4"/>
  <path class="st0" d="M914.3,453.8v36.4"/>
  <path class="st0" d="M915.3,453.8v36.4"/>
  <path class="st0" d="M916.2,456.6v30.7"/>
  <path class="st0" d="M917.1,456.6v30.7"/>
  <path class="st0" d="M918,456.6v30.7"/>
  <path class="st0" d="M919,466.1v11.8"/>
  <path class="st0" d="M919.9,466.1v11.8"/>
  <path class="st0" d="M920.8,461.2v21.7"/>
  <path class="st0" d="M921.7,468.8v6.5"/>
  <path class="st0" d="M922.7,468.8v6.5"/>
  <path class="st0" d="M923.6,468.8v6.5"/>
  <path class="st0" d="M924.5,466.1v11.9"/>
  <path class="st0" d="M925.4,466.1v11.9"/>
  <path class="st0" d="M926.4,466v12"/>
  <path class="st0" d="M927.3,466v12"/>
  <path class="st0" d="M928.2,467.7v8.6"/>
  <path class="st0" d="M929.1,467.7v8.6"/>
  <path class="st0" d="M930.1,464.8v14.5"/>
  <path class="st0" d="M931,464.8v14.5"/>
  <path class="st0" d="M931.9,464.8v14.5"/>
  <path class="st0" d="M932.8,464.3v15.4"/>
  <path class="st0" d="M933.7,464.3v15.4"/>
  <path class="st0" d="M934.7,462.5v19"/>
  <path class="st0" d="M935.6,462.5v19"/>
  <path class="st0" d="M936.5,462.5v19"/>
  <path class="st0" d="M937.4,466.2v11.6"/>
  <path class="st0" d="M938.4,466.2v11.6"/>
  <path class="st0" d="M939.3,464.3v15.3"/>
  <path class="st0" d="M940.2,469.6v4.8"/>
  <path class="st0" d="M941.1,469.6v4.8"/>
  <path class="st0" d="M942.1,469v5.9"/>
  <path class="st0" d="M943,469v5.9"/>
  <path class="st0" d="M943.9,469v5.9"/>
  <path class="st0" d="M944.8,467.2v9.6"/>
  <path class="st0" d="M945.8,467.2v9.6"/>
  <path class="st0" d="M946.7,467.2v9.6"/>
  <path class="st0" d="M947.6,463.8v16.5"/>
  <path class="st0" d="M948.5,450.9v42.3"/>
  <path class="st0" d="M949.5,450.9v42.3"/>
  <path class="st0" d="M950.4,468v8"/>
  <path class="st0" d="M951.3,468v8"/>
  <path class="st0" d="M952.2,467.4v9.2"/>
  <path class="st0" d="M953.1,467.4v9.2"/>
  <path class="st0" d="M954.1,467.4v9.2"/>
  <path class="st0" d="M955,468.8v6.4"/>
  <path class="st0" d="M955.9,468.8v6.4"/>
  <path class="st0" d="M956.8,468.8v6.4"/>
</svg>